<svg xmlns="http://www.w3.org/2000/svg" width="2560" height="55" viewBox="0 0 2560 55"><pattern id="diagonal-texture" patternUnits="userSpaceOnUse" width="6" height="6"><style>.cls-1{fill:#ccc}</style><path class="cls-1" d="M5 0h1v1H5zM4 1h1v1H4zM3 2h1v1H3zM2 3h1v1H2zM1 4h1v1H1zM0 5h1v1H0zM4.5.5H5V1h-.5zM5 1h.5v.5H5zM4 2h.5v.5H4zm-.5-.5H4V2h-.5zm-1 1H3V3h-.5zM3 3h.5v.5H3zM2 4h.5v.5H2zM1 5h.5v.5H1zM0 0h.5v.5H0z"/>/&gt;<path class="cls-1" d="M5.5 5.5H6V6h-.5zm-4-2H2V4h-.5zm-1 1H1V5H.5z"/></pattern><path fill="url(#diagonal-texture)" d="M0 0h2560v55H0z"/></svg>